<svg width="30" height="26" viewBox="0 0 30 26" fill="none" xmlns="http://www.w3.org/2000/svg">
<path d="M18.8141 3.80672C19.1391 5.17186 20.3763 6.18882 21.8536 6.18882C23.5783 6.18882 24.9766 4.80337 24.9766 3.09441C24.9766 1.38545 23.5783 0 21.8536 0C20.3455 0 19.0878 1.05903 18.795 2.46769C16.2694 2.73608 14.2972 4.8585 14.2972 7.43064C14.2972 7.43645 14.2972 7.4408 14.2972 7.4466C11.5505 7.56121 9.04246 8.3359 7.05124 9.55887C6.31186 8.99163 5.3836 8.65361 4.37628 8.65361C1.959 8.65361 0 10.5947 0 12.9898C0 14.7278 1.03075 16.225 2.51977 16.917C2.66471 21.951 8.20059 26 15.0102 26C21.8199 26 27.3631 21.9467 27.5007 16.9083C28.978 16.2119 30 14.7191 30 12.9913C30 10.5961 28.041 8.65506 25.6237 8.65506C24.6208 8.65506 23.6969 8.99018 22.959 9.55306C20.9502 8.32139 18.4144 7.5467 15.6398 7.4437C15.6398 7.43935 15.6398 7.43645 15.6398 7.4321C15.6398 5.58967 17.022 4.0606 18.8141 3.80962V3.80672ZM6.87555 15.7419C6.94876 14.1693 8.00293 12.9623 9.2284 12.9623C10.4539 12.9623 11.3909 14.2375 11.3177 15.8101C11.2445 17.3827 10.3294 17.9542 9.10249 17.9542C7.87555 17.9542 6.80234 17.3145 6.87555 15.7419ZM20.7936 12.9623C22.0205 12.9623 23.0747 14.1693 23.1464 15.7419C23.2196 17.3145 22.145 17.9542 20.9195 17.9542C19.694 17.9542 18.7775 17.3841 18.7042 15.8101C18.631 14.2375 19.5666 12.9623 20.7936 12.9623ZM19.3353 19.3803C19.5652 19.4035 19.7116 19.64 19.6223 19.8518C18.8682 21.6377 17.0878 22.8925 15.0102 22.8925C12.9327 22.8925 11.1537 21.6377 10.3982 19.8518C10.3089 19.64 10.4553 19.4035 10.6852 19.3803C12.0322 19.2454 13.489 19.1714 15.0102 19.1714C16.5315 19.1714 17.9868 19.2454 19.3353 19.3803Z" fill="white"/>
</svg>
