<svg width="31" height="31" viewBox="0 0 31 31" fill="none" xmlns="http://www.w3.org/2000/svg">
<path fill-rule="evenodd" clip-rule="evenodd" d="M31 15.5C31 24.0604 24.0604 31 15.5 31C6.93959 31 0 24.0604 0 15.5C0 6.93959 6.93959 0 15.5 0C24.0604 0 31 6.93959 31 15.5ZM16.0554 11.4428C14.5478 12.0698 11.5348 13.3677 7.01619 15.3364C6.28245 15.6282 5.89808 15.9136 5.86309 16.1927C5.80396 16.6644 6.39467 16.8502 7.19906 17.1031C7.30848 17.1375 7.42186 17.1732 7.53809 17.211C8.32949 17.4682 9.39407 17.7692 9.9475 17.7811C10.4495 17.792 11.0098 17.585 11.6284 17.1602C15.8502 14.3104 18.0296 12.8699 18.1664 12.8389C18.2629 12.817 18.3967 12.7894 18.4873 12.87C18.578 12.9505 18.569 13.1031 18.5594 13.144C18.5009 13.3935 16.1822 15.5492 14.9822 16.6648C14.6081 17.0126 14.3428 17.2593 14.2885 17.3156C14.167 17.4418 14.0432 17.5612 13.9241 17.6759C13.1889 18.3847 12.6376 18.9162 13.9547 19.7842C14.5876 20.2013 15.0941 20.5462 15.5994 20.8903C16.1512 21.2661 16.7016 21.6409 17.4137 22.1077C17.5952 22.2267 17.7685 22.3502 17.9372 22.4705C18.5794 22.9283 19.1564 23.3397 19.8692 23.2741C20.2834 23.236 20.7112 22.8465 20.9285 21.685C21.4419 18.9399 22.4513 12.9922 22.6845 10.5413C22.705 10.3265 22.6793 10.0517 22.6586 9.93108C22.638 9.81044 22.5948 9.63856 22.438 9.51132C22.2523 9.36063 21.9656 9.32885 21.8374 9.33111C21.2544 9.34138 20.36 9.65239 16.0554 11.4428Z" fill="white"/>
</svg>
