<svg width="24" height="20" viewBox="0 0 24 20" fill="none" xmlns="http://www.w3.org/2000/svg">
<path d="M22.8334 1.34309C21.8902 1.99559 20.846 2.49465 19.7409 2.82105C19.1478 2.15211 18.3595 1.67799 17.4827 1.4628C16.6059 1.24761 15.6829 1.30174 14.8384 1.61787C13.994 1.93399 13.2689 2.49686 12.7613 3.23035C12.2536 3.96384 11.9879 4.83255 12 5.719V6.68499C10.2693 6.729 8.55431 6.35251 7.00783 5.58902C5.46136 4.82554 4.13139 3.69877 3.13638 2.30907C3.13638 2.30907 -0.80301 11.0029 8.06063 14.8669C6.03236 16.2173 3.61616 16.8944 1.16669 16.7989C10.0303 21.6288 20.8637 16.7989 20.8637 5.69002C20.8628 5.42095 20.8364 5.15254 20.7849 4.88825C21.79 3.91598 22.4993 2.68843 22.8334 1.34309Z" stroke="#EEF4FF" stroke-width="2" stroke-linecap="round" stroke-linejoin="round"/>
</svg>
